<?xml version="1.0" encoding="UTF-8" standalone="no"?>
<!-- Created with Inkscape (http://www.inkscape.org/) -->

<svg
   width="300"
   height="300"
   viewBox="0 0 79.374999 79.375"
   version="1.1"
   id="svg1"
   xml:space="preserve"
   xmlns="http://www.w3.org/2000/svg"
   xmlns:svg="http://www.w3.org/2000/svg"><defs
     id="defs1" /><g
     id="layer1"
     transform="translate(-7.1183974,-14.832795)"><g
       id="g1"
       transform="translate(1.8058968,0.02991353)"><g
         id="g11"><path
           style="fill:#99d2c3;fill-opacity:1;stroke:#000000;stroke-width:0.265;stroke-dasharray:none;stroke-opacity:1"
           id="path3-8"
           d="m 55.250948,25.913918 c 0,0.4968 -7.849771,14.093002 -8.280013,14.341403 -0.430242,0.2484 -16.129784,0.2484 -16.560026,0 -0.430242,-0.248401 -8.280013,-13.844603 -8.280013,-14.341403 0,-0.496801 7.849771,-14.093003 8.280013,-14.341404 0.430242,-0.2484 16.129784,-0.2484 16.560026,0 0.430242,0.248401 8.280013,13.844603 8.280013,14.341404 z"
           transform="matrix(0.89750365,0,0,0.89750365,10.274757,57.732546)" /><path
           style="fill:#f6bc59;fill-opacity:1;stroke:#000000;stroke-width:0.265;stroke-dasharray:none;stroke-opacity:1"
           id="path3-7"
           d="m 55.250948,25.913918 c 0,0.4968 -7.849771,14.093002 -8.280013,14.341403 -0.430242,0.2484 -16.129784,0.2484 -16.560026,0 -0.430242,-0.248401 -8.280013,-13.844603 -8.280013,-14.341403 0,-0.496801 7.849771,-14.093003 8.280013,-14.341404 0.430242,-0.2484 16.129784,-0.2484 16.560026,0 0.430242,0.248401 8.280013,13.844603 8.280013,14.341404 z"
           transform="matrix(0.89750365,0,0,0.89750365,33.174757,17.982546)" /><path
           style="fill:#98d3c1;fill-opacity:1;stroke:#000000;stroke-width:0.265;stroke-dasharray:none;stroke-opacity:1"
           id="path3-2"
           d="m 55.250948,25.913918 c 0,0.4968 -7.849771,14.093002 -8.280013,14.341403 -0.430242,0.2484 -16.129784,0.2484 -16.560026,0 -0.430242,-0.248401 -8.280013,-13.844603 -8.280013,-14.341403 0,-0.496801 7.849771,-14.093003 8.280013,-14.341404 0.430242,-0.2484 16.129784,-0.2484 16.560026,0 0.430242,0.248401 8.280013,13.844603 8.280013,14.341404 z"
           transform="matrix(0.89750365,0,0,0.89750365,33.174757,44.482546)" /><path
           style="fill:#f5ad61;fill-opacity:1;stroke:#000000;stroke-width:0.265;stroke-dasharray:none;stroke-opacity:1"
           id="path3-5"
           d="m 55.250948,25.913918 c 0,0.4968 -7.849771,14.093002 -8.280013,14.341403 -0.430242,0.2484 -16.129784,0.2484 -16.560026,0 -0.430242,-0.248401 -8.280013,-13.844603 -8.280013,-14.341403 0,-0.496801 7.849771,-14.093003 8.280013,-14.341404 0.430242,-0.2484 16.129784,-0.2484 16.560026,0 0.430242,0.248401 8.280013,13.844603 8.280013,14.341404 z"
           transform="matrix(0.89750365,0,0,0.89750365,-12.625243,17.982546)" /><path
           style="display:inline;fill:#fbd362;fill-opacity:1;stroke:#000000;stroke-width:0.265;stroke-dasharray:none;stroke-opacity:1"
           id="path3-5-1"
           d="m 55.250948,25.913918 c 0,0.4968 -7.849771,14.093002 -8.280013,14.341403 -0.430242,0.2484 -16.129784,0.2484 -16.560026,0 -0.430242,-0.248401 -8.280013,-13.844603 -8.280013,-14.341403 0,-0.496801 7.849771,-14.093003 8.280013,-14.341404 0.430242,-0.2484 16.129784,-0.2484 16.560026,0 0.430242,0.248401 8.280013,13.844603 8.280013,14.341404 z"
           transform="matrix(0.89750365,0,0,0.89750365,10.274757,4.7325456)" /><path
           style="fill:#c67bb3;fill-opacity:1;stroke:#000000;stroke-width:0.265;stroke-dasharray:none;stroke-opacity:1"
           id="path3-1"
           d="m 55.250948,25.913918 c 0,0.4968 -7.849771,14.093002 -8.280013,14.341403 -0.430242,0.2484 -16.129784,0.2484 -16.560026,0 -0.430242,-0.248401 -8.280013,-13.844603 -8.280013,-14.341403 0,-0.496801 7.849771,-14.093003 8.280013,-14.341404 0.430242,-0.2484 16.129784,-0.2484 16.560026,0 0.430242,0.248401 8.280013,13.844603 8.280013,14.341404 z"
           transform="matrix(0.89750365,0,0,0.89750365,-12.625243,44.482546)" /><path
           style="display:inline;fill:#1f1f1f;fill-opacity:1;stroke:#000000;stroke-width:0.265;stroke-dasharray:none;stroke-opacity:1"
           id="path3-5-8"
           d="m 55.250948,25.913918 c 0,0.4968 -7.849771,14.093002 -8.280013,14.341403 -0.430242,0.2484 -16.129784,0.2484 -16.560026,0 -0.430242,-0.248401 -8.280013,-13.844603 -8.280013,-14.341403 0,-0.496801 7.849771,-14.093003 8.280013,-14.341404 0.430242,-0.2484 16.129784,-0.2484 16.560026,0 0.430242,0.248401 8.280013,13.844603 8.280013,14.341404 z"
           transform="matrix(0.89750366,0,0,0.89750366,10.274757,31.232546)" /></g><g
         style="display:inline;fill:#ffffff"
         id="g7"
         transform="matrix(0.90042238,0,0,0.90042238,34.194932,43.685313)"><path
           d="M 0,0 H 24 V 24 H 0 Z"
           fill="none"
           id="path1-2" /><path
           d="M 9.4,10.5 14.17,2.24 C 13.47,2.09 12.75,2 12,2 9.6,2 7.4,2.85 5.68,4.25 L 9.34,10.6 Z M 21.54,9 C 20.62,6.08 18.39,3.74 15.54,2.66 L 11.88,9 Z m 0.26,1 h -7.49 l 0.29,0.5 4.76,8.25 C 21,16.97 22,14.61 22,12 22,11.31 21.93,10.65 21.8,10 Z M 8.54,12 4.64,5.25 C 3.01,7.03 2,9.39 2,12 c 0,0.69 0.07,1.35 0.2,2 h 7.49 z m -6.08,3 c 0.92,2.92 3.15,5.26 6,6.34 L 12.12,15 Z m 11.27,0 -3.9,6.76 c 0.7,0.15 1.42,0.24 2.17,0.24 2.4,0 4.6,-0.85 6.32,-2.25 L 14.66,13.4 Z"
           id="path2-7" /></g><g
         id="g10"
         transform="matrix(1.0794945,0,0,1.297803,-65.383681,18.408711)"
         style="display:inline;opacity:0.2"><ellipse
           style="fill:#000000;fill-opacity:1;stroke:none;stroke-width:0.383541;stroke-dasharray:none;stroke-opacity:1;paint-order:normal"
           id="path9-2"
           cx="102.25497"
           cy="35.885155"
           rx="18.064011"
           ry="13.484327" /><ellipse
           style="opacity:1;fill:#000000;fill-opacity:1;stroke:none;stroke-width:0.291296;stroke-dasharray:none;stroke-opacity:1;paint-order:normal"
           id="path9"
           ry="9.6316624"
           rx="16.211292"
           cy="17.085901"
           cx="102.25497" /></g></g></g></svg>
